<svg width="577" height="577" viewBox="0 0 577 577" fill="none" xmlns="http://www.w3.org/2000/svg">
<rect width="577" height="577" fill="white"/>
<path fill-rule="evenodd" clip-rule="evenodd" d="M254.11 103.597C241.901 112.906 231.676 124.47 223.96 137.633C211.317 135.109 197.694 134.572 183.901 136.548C187.363 121.508 194.456 107.352 204.703 95.5272C207.088 92.7884 210.62 91.3189 214.243 91.5805C228.345 92.5806 241.962 96.7581 254.11 103.597ZM288.499 174.476C300.714 160.979 315.005 151.105 330.205 144.657C321.157 131.093 308.648 119.946 293.661 112.453C290.415 110.829 286.584 110.829 283.337 112.453C268.35 119.946 255.841 131.093 246.794 144.657C261.994 151.105 276.285 160.98 288.499 174.476ZM362.086 288.499C372.626 283.245 382.296 276.305 390.728 267.873C416.17 242.424 425.079 204.78 413.685 170.606C412.539 167.168 409.831 164.459 406.392 163.313C372.249 151.935 334.598 160.805 309.125 186.27C300.693 194.702 293.746 204.372 288.499 214.92C283.252 204.372 276.305 194.702 267.873 186.27C242.424 160.828 204.78 151.919 170.607 163.313C167.16 164.459 164.46 167.168 163.313 170.606C151.935 204.749 160.805 242.401 186.27 267.873C194.694 276.297 204.373 283.245 214.912 288.499C204.373 293.754 194.702 300.693 186.27 309.125C160.828 334.574 151.919 372.218 163.313 406.392C164.46 409.831 167.168 412.539 170.607 413.685C204.75 425.063 242.401 416.193 267.873 390.728C276.305 382.296 283.252 372.626 288.499 362.078C293.746 372.626 300.693 382.296 309.125 390.728C334.713 416.316 372.403 425.017 406.392 413.685C409.838 412.539 412.539 409.831 413.685 406.392C425.064 372.249 416.193 334.598 390.728 309.125C382.304 300.701 372.626 293.754 362.086 288.499ZM460.384 293.661C453.475 307.479 443.466 319.18 431.318 328.02C424.79 313.462 415.238 300.008 402.522 288.499C414.721 277.459 424.509 264.167 431.311 248.971C443.458 257.81 453.475 269.52 460.384 283.337C462.007 286.583 462.007 290.415 460.384 293.661ZM145.688 328.027C152.49 312.831 162.277 299.539 174.476 288.499C161.761 276.991 152.208 263.534 145.68 248.978C133.532 257.818 123.523 269.52 116.615 283.337C114.991 286.583 114.991 290.415 116.615 293.661C123.523 307.479 133.54 319.188 145.688 328.027ZM330.359 432.403C321.365 445.497 309.117 456.268 294.508 463.576C291.34 465.153 287.536 465.241 284.191 463.576C269.374 456.168 256.98 445.189 247.955 431.834C263.247 425.157 276.98 415.25 288.499 402.522C300.733 416.04 315.07 425.934 330.359 432.403ZM481.471 376.811C469.446 387.235 455.006 394.39 439.681 397.783C442.551 382.273 442.289 366.317 438.858 350.807C450.875 343.16 461.445 333.359 470.023 321.842C478.863 335.321 484.256 350.977 485.418 367.271C485.679 370.895 484.21 374.426 481.471 376.811ZM372.295 481.471C382.55 469.646 389.636 455.483 393.098 440.442C379.945 442.345 366.308 441.977 353.285 439.404C345.407 452.544 335.013 464.046 322.635 473.262C334.844 480.186 348.561 484.41 362.755 485.418C363.032 485.441 363.302 485.448 363.578 485.448C366.91 485.448 370.095 484.01 372.295 481.471ZM214.243 485.418C228.822 484.379 242.885 479.955 255.333 472.708C243.178 463.522 232.976 452.113 225.229 439.111C211.82 441.925 197.679 442.443 183.901 440.45C187.363 455.491 194.456 469.646 204.703 481.471C206.904 484.01 210.089 485.448 213.42 485.448C213.697 485.448 213.966 485.441 214.243 485.418ZM393.098 136.548C379.305 134.572 365.682 135.109 353.039 137.633C345.322 124.47 335.098 112.906 322.888 103.597C335.036 96.7581 348.653 92.5806 362.755 91.5805C366.379 91.3189 369.91 92.7884 372.295 95.5272C382.543 107.352 389.636 121.508 393.098 136.548ZM95.5273 378.25C107.629 388.743 122.169 395.921 137.61 399.283C134.432 383.304 134.602 366.81 138.148 350.807C126.362 343.314 115.968 333.751 107.483 322.519C98.3431 336.167 92.7577 352.108 91.5806 368.71C91.3191 372.333 92.7885 375.865 95.5273 378.25ZM485.418 209.727C484.256 226.022 478.863 241.677 470.023 255.156C461.445 243.632 450.875 233.838 438.85 226.191C442.281 210.689 442.551 194.725 439.681 179.215C455.006 182.608 469.446 189.763 481.471 200.187C484.21 202.572 485.679 206.103 485.418 209.727ZM106.975 255.156C115.553 243.639 126.124 233.838 138.141 226.191C134.709 210.681 134.456 194.717 137.318 179.215C121.992 182.608 107.552 189.763 95.5273 200.187C92.7885 202.572 91.3191 206.103 91.5806 209.727C92.7423 226.022 98.1353 241.677 106.975 255.156ZM253.879 288.499C253.879 269.412 269.412 253.879 288.499 253.879C307.586 253.879 323.119 269.412 323.119 288.499C323.119 307.586 307.586 323.119 288.499 323.119C269.412 323.119 253.879 307.586 253.879 288.499ZM276.959 288.499C276.959 294.869 282.129 300.039 288.499 300.039C294.869 300.039 300.039 294.869 300.039 288.499C300.039 282.129 294.869 276.959 288.499 276.959C282.129 276.959 276.959 282.129 276.959 288.499Z" fill="#569EFF"/>
<path d="M198.722 462.89C185.021 462.998 174.251 463.608 165.132 464.893C143.208 467.984 130.173 475.242 124.399 488.933C121.452 495.922 122.871 501.963 128.284 506.667C132.931 510.706 140.491 513.761 150.781 515.997L151.356 516.12C168.96 519.857 193.955 521.209 225.652 520.734L227.601 520.702C242.491 520.446 257.759 519.834 276.137 518.846L294.433 517.809C300.862 517.439 307.485 517.058 309.843 516.932L313.031 516.767C319.804 516.43 324.169 516.305 326.864 516.389L329.885 516.503C373.566 518.103 407.653 515.918 429.584 510.769C439.588 508.42 446.745 505.508 450.748 502.194C455.082 498.604 455.831 494.284 452.617 490.469C442.591 478.566 426.137 471.841 399.552 468.257L398.179 468.075C376.091 465.209 348.619 464.329 296.412 464.294L288.9 464.287C278.741 464.257 269.016 464.118 256.106 463.842L224.349 463.119C214.844 462.921 209.498 462.86 203.541 462.868L198.722 462.89Z" fill="white"/>
<ellipse cx="288.742" cy="501.79" rx="163.927" ry="17.1109" fill="#E7EAEE"/>
<path fill-rule="evenodd" clip-rule="evenodd" d="M322.364 380.3C325.34 380.824 327.378 377.917 331.986 368.223L332.326 367.52L332.661 366.849C338.153 356.05 344.504 352.607 351.715 356.522L354.608 347.982L353.636 347.535L352.702 347.113C337.733 340.425 329.648 340.019 328.447 345.894L328.329 346.536L328.229 347.053C327.35 351.533 325.202 360.159 323.648 367.502L323.386 368.755C322.089 375.049 321.33 380.117 322.364 380.3Z" fill="white"/>
<path fill-rule="evenodd" clip-rule="evenodd" d="M290.488 293.688C290.488 293.688 312.372 296.588 323.44 296.085C334.508 295.583 350.695 290.955 350.695 290.955L350.31 304.931C350.31 304.931 401.945 303.888 394.147 346.187C389.012 374.046 349.715 362.59 349.715 362.59L357.231 346.187C357.231 346.187 380.801 347.892 372.218 340.72C370.626 339.39 360.447 337.554 347.052 337.913C335.547 338.221 325.553 334.774 324.513 331.679C320.615 320.077 326.276 313.973 326.276 313.973C326.276 313.973 320.8 316.639 321.839 323.119C322.878 329.599 315.225 462.28 315.225 462.28C315.225 462.28 308.301 463.508 304.82 463.508C301.338 463.508 296.545 462.28 296.545 462.28L290.488 293.688Z" fill="white"/>
<path fill-rule="evenodd" clip-rule="evenodd" d="M290.488 293.688C290.488 293.688 302.031 463.375 300.424 463.109C299.212 462.908 296.545 462.28 296.545 462.28L290.488 293.688Z" fill="#E7EAEE"/>
<path fill-rule="evenodd" clip-rule="evenodd" d="M299.993 464.894C300.752 471.571 299.334 474.247 299.521 474.247C302.614 474.247 304.462 474.185 309.423 473.799C309.423 473.799 309.146 470.923 309.146 469.571C309.146 467.955 309.423 464.894 309.423 464.894H299.993Z" fill="white"/>
<path d="M292.347 139.285C292.347 139.285 280.807 143.618 280.807 135.461C280.807 127.304 289.71 131.37 289.71 131.37" fill="white"/>
<path d="M343.123 140.136C345.545 140.675 353.124 145.401 353.124 133.958C353.124 128.496 344.47 132.441 344.47 132.441" fill="white"/>
<path d="M315.581 92.4093C306.047 93.3342 286.067 102.4 289.705 128.301C292.525 148.38 307.543 170.023 316.771 170.023C325.832 170.023 341.086 151.803 343.301 133.865C347.824 97.232 325.115 91.4844 315.581 92.4093Z" fill="white"/>
<path fill-rule="evenodd" clip-rule="evenodd" d="M315.935 110.944C316.441 109.768 318.079 109.69 318.696 110.812C321.842 116.536 325.366 120.525 329.244 122.808C333.159 125.114 337.779 125.341 342.491 123.228C343.267 122.88 344.177 123.227 344.525 124.002C344.873 124.778 344.526 125.688 343.75 126.036C338.134 128.554 332.463 128.275 327.682 125.46C323.956 123.266 320.6 119.779 317.6 115.018L317.49 114.841L317.391 115.033C314.968 119.633 311.842 123.307 308.015 126.036L307.63 126.305C302.812 129.622 297.156 131.096 290.72 130.733C289.871 130.685 289.222 129.958 289.27 129.11C289.318 128.261 290.045 127.612 290.893 127.66C296.667 127.986 301.646 126.688 305.885 123.77C310.166 120.825 313.514 116.561 315.935 110.944Z" fill="#E7EAEE"/>
<path fill-rule="evenodd" clip-rule="evenodd" d="M365.146 258.323C364.218 275.784 357.694 283.193 349.541 284.257C348.458 284.398 349.975 290.621 349.032 291.437C343.658 296.085 334.185 296.286 319.331 296.421C305.884 296.543 297.212 295.458 291.186 292.987C290.725 292.798 291.14 284.966 290.663 284.924C283.113 284.257 274.417 277.557 272.303 259.335C265.149 197.641 286.668 185.717 307.15 175.887C308.261 175.354 308.865 174.425 309.968 173.897C312.297 172.783 311.69 175.347 316.982 175.347C322.275 175.347 322.275 173.337 324.658 174.476C325.547 174.901 325.694 177.555 326.579 178.022C347.539 189.082 367.711 210.063 365.146 258.323Z" fill="white"/>
<path fill-rule="evenodd" clip-rule="evenodd" d="M326.579 178.022C354.257 188.038 367.113 214.805 365.146 258.323C362.789 310.498 303.53 263.79 323.285 218.841C327.992 208.133 334.176 253.473 334.244 253.665C335.819 258.123 340.632 261.581 345.499 263.43C345.499 263.43 347.678 232.003 343.891 217.186C340.329 203.249 326.579 178.022 326.579 178.022Z" fill="white"/>
<path fill-rule="evenodd" clip-rule="evenodd" d="M308.757 167.715C308.757 167.715 309.534 170.046 309.264 171.487C308.994 172.928 307.342 175.26 307.342 175.26C307.342 175.26 261.396 189.275 272.036 259.221C283.872 309.948 325.367 276.959 318.167 236.511C317.869 206.477 311.069 216.646 305.961 249.742C304.712 257.839 289.356 260.138 289.356 260.138" fill="white"/>
<ellipse cx="330.427" cy="148.097" rx="4.23132" ry="3.46201" fill="#FFB61D"/>
<ellipse cx="305.04" cy="148.097" rx="4.23132" ry="3.46201" fill="#FFB61D"/>
<path d="M309.309 152.766C309.492 151.936 313.28 152.587 314.346 154.004L314.675 154.444C315.667 155.76 316.273 156.175 317.554 156.175C319.19 156.175 319.747 155.881 320.678 154.663L320.926 154.329C322.006 152.849 325.817 151.775 326.106 152.574C326.396 153.373 325.982 154.255 325.183 154.544C324.584 154.761 324.243 155.045 323.659 155.811L323.385 156.18C321.788 158.367 320.46 159.252 317.554 159.252C315.194 159.252 313.827 158.368 312.369 156.494L311.886 155.854L311.668 155.57C311.188 154.962 310.894 154.716 310.554 154.618L310.48 154.6C309.65 154.417 309.126 153.596 309.309 152.766Z" fill="#00160A"/>
<path d="M312.298 129.888C310.465 129.327 308.794 129.167 307.827 129.284C306.787 129.41 305.472 129.947 304.259 130.442C303.288 130.838 302.382 131.207 301.734 131.318C301.091 131.429 300.126 131.393 299.186 131.358C297.997 131.314 296.848 131.271 296.438 131.527C295.704 131.985 296.8 132.726 297.441 132.811C299.658 133.104 301.272 133.174 302.342 133.003C303.291 132.851 304.148 132.588 305.312 132.142L306.526 131.68C307.334 131.379 307.542 131.331 307.827 131.324L308.028 131.325C308.841 131.345 310.041 131.589 311.596 132.064C312.213 132.253 312.871 131.919 313.065 131.318C313.259 130.717 312.916 130.077 312.298 129.888Z" fill="#00160A"/>
<path d="M316.834 146.4C317.702 143.864 318.206 131.374 317.25 131.364C316.294 131.354 315.511 132.121 315.501 133.077C315.487 134.421 315.495 135.71 315.503 136.919C315.527 140.547 315.546 143.449 314.939 144.933L314.81 145.239C314.026 147.184 313.807 148.839 315.901 149.226C317.151 149.457 322.766 146.272 322.443 145.373C322.119 144.473 321.128 144.006 320.228 144.329L319.992 144.413C319.458 144.601 318.759 145.185 318.131 145.712C317.572 146.179 317.069 146.601 316.784 146.657L316.739 146.665L316.834 146.4Z" fill="#00160A"/>
<path d="M323.941 129.888C325.775 129.327 327.446 129.167 328.412 129.284C329.453 129.41 330.768 129.947 331.981 130.442C332.952 130.838 333.858 131.207 334.506 131.318C335.149 131.429 336.114 131.393 337.054 131.358C338.243 131.314 339.392 131.271 339.802 131.527C340.536 131.985 339.44 132.726 338.799 132.811C336.582 133.104 334.967 133.174 333.898 133.003C332.949 132.851 332.092 132.588 330.928 132.142L329.713 131.68C328.906 131.379 328.698 131.331 328.412 131.324L328.212 131.325C327.399 131.345 326.199 131.589 324.644 132.064C324.027 132.253 323.369 131.919 323.175 131.318C322.981 130.717 323.324 130.077 323.941 129.888Z" fill="#00160A"/>
<path d="M333.846 138.586C334.33 137.761 334.053 136.701 333.228 136.217C332.937 136.047 332.707 136.371 332.357 136.861C331.715 137.761 330.672 139.224 328.122 139.224C325.551 139.224 324.497 137.748 323.856 136.85C323.514 136.371 323.289 136.057 323.015 136.217C322.19 136.701 321.913 137.761 322.397 138.586C323.617 140.667 325.601 141.75 328.122 141.75C330.642 141.75 332.626 140.667 333.846 138.586Z" fill="#00160A"/>
<path d="M311.748 136.255C312.552 136.773 312.784 137.844 312.266 138.648C310.941 140.706 308.824 141.75 306.13 141.75C303.417 141.75 301.321 140.687 300.087 138.588C299.602 137.764 299.416 136.652 300.702 136.219C301.263 136.029 301.833 136.577 302.536 137.255C303.443 138.128 304.573 139.215 306.195 139.215C309.266 139.215 310.353 137.677 310.973 136.799C311.285 136.357 311.479 136.082 311.748 136.255Z" fill="#00160A"/>
<path fill-rule="evenodd" clip-rule="evenodd" d="M317.232 57.2926C307.532 59.0227 300.103 66.3715 298.652 77.228C298.583 77.7442 298.538 78.2475 298.516 78.7381C296.835 79.2654 291.856 80.8728 291.992 81.3747C292.12 81.8419 296.536 80.7918 298.526 80.2933C298.815 85.0532 301.504 88.4655 306.035 90.5533C307.188 91.0847 308.428 91.521 309.745 91.8728C305.062 93.3477 300.276 96.0459 296.495 99.7531C289.507 106.603 286.269 116.265 287.993 128.542C288.009 128.653 288.025 128.764 288.041 128.875C282.467 127.158 279.076 129.436 279.076 135.461C279.076 141.505 287.915 144.902 291.653 142.445C295.421 152.423 301.289 161.647 307.188 166.987C307.009 167.373 306.971 167.826 307.116 168.262C307.55 169.562 307.681 170.543 307.564 171.168L307.54 171.283C307.407 171.833 307.023 172.619 306.38 173.601L306.257 173.785L305.897 173.899C275.009 183.819 263.189 212.565 270.326 259.482L270.352 259.615L270.483 260.169C273.927 274.435 280.446 282.759 288.565 284.916C288.564 284.954 288.564 284.994 288.565 285.033C289.984 333.087 291.225 371.375 292.287 399.899L292.672 410.028L293.057 419.63C293.6 432.826 294.088 442.971 294.521 450.07L294.797 454.426C295.272 461.554 295.549 463.123 296.566 463.842L296.666 463.908L296.741 463.954C296.96 464.081 297.23 464.194 297.552 464.295C297.174 464.294 296.794 464.294 296.412 464.294L288.9 464.287C278.741 464.257 269.016 464.118 256.106 463.842L224.349 463.119C214.844 462.921 209.498 462.86 203.541 462.868L198.722 462.89C185.021 462.998 174.251 463.608 165.132 464.893C143.208 467.984 130.173 475.242 124.399 488.933C121.452 495.922 122.871 501.963 128.284 506.667C132.931 510.706 140.491 513.761 150.781 515.997L151.356 516.12C168.96 519.857 193.955 521.209 225.652 520.734L227.601 520.702C242.491 520.446 257.759 519.834 276.137 518.846L294.433 517.809C300.862 517.439 307.485 517.058 309.843 516.932L313.031 516.767C319.804 516.43 324.169 516.305 326.864 516.389L329.885 516.503C373.566 518.103 407.653 515.918 429.584 510.769C439.588 508.421 446.745 505.508 450.748 502.194C455.082 498.604 455.831 494.284 452.617 490.469C442.591 478.566 426.137 471.841 399.552 468.257L398.179 468.075C379.133 465.604 356.084 464.609 316.627 464.359L316.844 464.345C317.825 464.279 318.598 463.483 318.636 462.5L321.49 382.425C321.571 382.426 321.653 382.424 321.739 382.419C325.469 382.162 327.994 379.857 332.596 371.186L333.143 370.144L333.77 368.931C334.891 366.86 337.871 363.642 340.425 360.884L340.425 360.884C342.101 359.074 343.594 357.462 344.258 356.502C345.634 356.771 347.633 356.983 350.255 357.136L350.583 357.154L348.502 362.207L348.462 362.314C348.202 363.106 348.623 363.972 349.424 364.248C376.877 373.689 391.802 366.32 395.657 346.48C401.155 318.183 386.276 303.965 351.987 304.328L352.529 286.214C354.636 285.917 356.608 285.068 358.377 283.633C363.383 279.57 366.302 271.151 366.878 258.401C368.835 215.086 356.193 187.815 328.862 177.034L327.933 176.676L327.845 176.431C327.364 175.069 327.041 173.967 326.878 173.136L326.843 172.95C326.67 171.976 326.67 170.349 326.863 168.122C326.887 167.845 326.844 167.578 326.748 167.336C333.48 161.888 340.051 152.102 343.258 141.98L343.339 142.008C343.373 142.02 343.407 142.032 343.443 142.045L344.92 142.57C345.89 142.896 346.701 143.106 347.531 143.215C352.085 143.813 354.856 140.845 354.856 133.958C354.856 131.354 353.603 129.553 351.26 129.143C349.728 128.874 347.804 129.229 345.415 130.16C346.554 115.19 343.048 104.481 335.898 97.7892C333.205 95.268 330.053 93.4209 326.781 92.2278C329.823 91.414 332.87 90.037 335.24 88.1528C340.676 83.8299 342.391 77.3279 339.272 68.8837L349.873 66.5181L349.958 66.4887C350.314 66.3414 350.403 65.4583 350.403 64.7987C350.403 64.139 349.862 63.3832 349.453 63.4992L338.607 67.2349C335.119 59.4895 326.327 55.6702 317.232 57.2926ZM300.689 466.607L301.209 466.608C303.707 466.612 306.146 466.622 308.528 466.638C308.345 468.729 308.3 471.276 308.482 473.14H301.238C301.168 471.649 300.981 468.89 300.689 466.607ZM298.564 466.605C298.399 467.925 298.264 469.413 298.143 470.751C298.049 471.802 297.962 472.76 297.875 473.47C297.816 473.517 297.759 473.568 297.707 473.624C293.657 477.927 289.466 480.727 285.136 482.055L284.431 482.266C280.729 483.348 273.795 485.055 273.932 485.016C270.911 485.877 269.447 486.87 268.933 488.942C268.086 492.354 271.539 493.852 280.494 493.91L281.176 493.912C282.646 493.91 283.944 493.761 286.802 493.308L289.025 492.953C291.267 492.605 292.594 492.456 293.809 492.444L294.335 492.448C294.973 492.464 295.631 492.53 297.072 492.714L298.832 492.943C299.85 493.073 300.57 493.153 301.33 493.216C304.478 493.476 306.883 493.258 308.897 492.292C314.109 489.791 314.743 483.571 311.332 474.155C311.328 474.143 311.324 474.132 311.319 474.121C311.337 474.017 311.346 473.909 311.346 473.799V466.66C354.865 467.044 379.11 469.382 399.038 472.069L400.57 472.28C425.388 475.795 440.575 482.144 449.675 492.947C453.348 497.308 446.722 502.794 428.705 507.025C406.935 512.136 372.697 514.291 328.688 512.609L327.352 512.557C324.202 512.432 318.902 512.601 310.12 513.065L302.046 513.518C298.973 513.694 295.436 513.898 292.092 514.091C287.095 514.379 282.528 514.642 280.584 514.75L275.934 515.005C258.362 515.95 243.646 516.549 229.392 516.822L227.535 516.856C195.182 517.412 169.763 516.095 152.155 512.357C131.711 508.018 121.987 500.903 126.405 490.428C131.5 478.348 144.71 470.217 165.05 467.253L165.669 467.164C171.749 466.307 178.612 466.441 186.652 466.598C190.652 466.676 194.944 466.76 199.576 466.73L203.545 466.715C209.987 466.706 252.928 466.082 252.928 466.082C267.962 466.415 278.663 466.574 290.09 466.598L298.564 466.605ZM324.156 169.209C321.601 170.832 319.081 171.754 316.774 171.754C314.963 171.754 313.018 171.091 311.025 169.891C311.095 170.581 311.077 171.218 310.967 171.806C310.731 173.063 309.989 175.289 308.757 177.029C308.722 177.078 308.686 177.124 308.647 177.168C310.299 178.104 312.853 179.076 316.379 178.582C320.263 178.038 322.409 176.658 323.713 175.585C323.51 173.524 323.771 171.079 324.156 169.209ZM324.138 177.647C322.525 179.756 319.808 182.044 316.379 182.044C311.212 182.044 307.818 180.762 306.715 178.042C278.139 187.32 265.547 213.133 272.006 257.591L272.199 258.891L272.305 259.335C276.269 275.797 285.62 283.029 294.827 281.901L295.109 281.864C303.354 280.704 311.389 272.768 313.54 263.725L313.859 262.363C315.464 255.383 316.438 249.211 316.438 244.14L316.433 242.035C316.379 230.987 315.906 222.809 315.312 219.203L315.27 218.957L315.204 219.135C314.953 219.815 314.684 220.647 314.402 221.628L314.317 221.927C313.019 226.533 311.494 234.021 309.762 244.424C308.488 252.071 288.039 261.668 287.733 260.762C287.638 260.48 289.313 259.326 291.695 257.685L291.697 257.684L291.707 257.677C292.635 257.038 293.669 256.325 294.748 255.562C294.71 255.491 294.671 255.416 294.631 255.336C291.618 249.292 289.762 243.99 289.076 239.406C288.398 234.875 289.981 216.641 290.986 216.646L291.112 216.651C291.619 216.686 291.508 219.049 291.343 222.552C291.163 226.369 290.919 231.541 291.342 236.529C291.801 241.945 294.203 247.4 295.871 251.19C296.331 252.236 296.736 253.156 297.028 253.912C301.436 250.642 305.854 246.815 306.347 243.856L306.74 241.524C308.298 232.398 309.688 225.663 310.909 221.26L310.985 220.987C311.654 218.615 312.278 216.92 312.894 215.842C313.862 214.148 315.329 213.266 316.87 214.492C318.582 215.854 319.439 221.712 319.754 232.393C320.016 227.609 320.452 223.737 321.042 220.836C321.535 218.413 322.135 216.659 322.884 215.549C323.948 213.974 325.611 213.437 327.123 214.495L327.225 214.569C330.473 217.057 332.663 229.12 332.791 244.807L332.797 246.12L332.828 246.303C334.812 253.801 338.924 258.172 342.655 260.79C350.267 248.315 345.836 225.205 343.957 215.402C343.415 212.577 343.085 210.857 343.317 210.815C344.362 210.626 345.363 211.32 345.552 212.365C347.958 225.667 349.196 235.501 349.263 241.917C349.331 248.408 348.244 255.249 346.009 262.437C345.977 262.541 345.937 262.641 345.889 262.735C347.027 263.319 348.026 263.742 348.78 264.061C349.754 264.473 350.318 264.712 350.245 264.903C349.903 265.796 336.106 265.796 329.358 246.547C329.334 246.48 329.334 246.384 329.335 246.298L329.335 246.268C329.335 238.239 328.785 231.08 327.819 225.618C327.379 223.132 326.865 221.077 326.316 219.568L326.243 219.37C325.998 218.724 325.757 218.218 325.551 217.867L325.542 217.851L325.5 217.936C325.138 218.683 324.766 219.895 324.434 221.527L324.38 221.798C324.212 222.659 324.002 223.613 323.773 224.658C322.783 229.166 321.422 235.366 321.39 243.093L321.388 244.246C321.388 257.724 330.863 274.044 341.633 280.439C352.825 287.084 362.412 280.552 363.42 258.244C365.355 215.409 353.527 186.707 325.993 179.65C325.094 179.419 324.502 178.675 324.138 177.647ZM319.716 248.375C319.324 253.159 318.325 258.571 316.909 264.526C314.44 274.905 305.305 283.926 295.591 285.292C293.913 285.528 292.277 285.542 290.694 285.335C290.792 286.748 290.903 288.784 291.025 291.352C291.372 291.304 291.735 291.349 292.078 291.503C294.613 292.643 308.642 294.218 320.83 294.462L321.735 294.477C336.232 294.695 346.614 293.084 348.564 290.125L348.682 286.175C346.335 285.821 343.883 284.888 341.404 283.416C330.682 277.05 321.347 262.086 319.716 248.375ZM282.538 135.461C282.238 130.978 285.869 131.272 288.548 131.783C289.12 134.623 289.914 137.491 290.885 140.316L290.749 140.313C287.772 140.23 282.848 140.094 282.538 135.461ZM345.201 132.509C345.147 133.027 345.087 133.55 345.022 134.077C344.786 135.985 344.399 137.919 343.881 139.85C347.349 140.261 353.157 140.487 352.072 132.784C351.65 129.783 347.783 131.41 345.201 132.509ZM316.256 90.6209C317.736 90.5329 319.27 90.5853 320.822 90.7804C324.751 90.7322 330.631 88.9396 333.324 85.7443C343.892 73.2089 329.239 59.0075 317.859 60.8431C309.407 62.2062 301.433 68.1409 300.164 77.6357C299.554 82.1965 302.533 89.4598 316.256 90.6209ZM293.653 363.017C295.261 410.165 296.991 460.921 297.772 462.28C297.904 462.518 299.91 462.536 301.5 462.551L301.503 462.551H301.51C301.927 462.555 302.316 462.559 302.634 462.566L303.49 462.579L304.462 462.581C306.817 462.569 309.787 462.459 313.366 462.25L314.858 462.159L320.74 321.987C320.578 318.799 317.637 315.155 315.659 312.704C314.482 311.246 313.647 310.21 313.942 309.946C314.723 309.247 320.838 316.103 321.965 318.528C321.986 318.61 322.01 318.72 322.037 318.855C322.731 317.035 323.708 315.127 324.98 313.143C325.439 312.428 331.256 304.358 327.106 312.678C318.218 330.496 328.286 337.737 345.858 337.801L345.924 337.802L345.931 337.802C346.077 337.803 346.185 337.804 346.425 337.773C353.267 336.904 360.693 337.305 366.542 338.068C372.291 338.818 382.229 344.417 370.98 347.577C368.292 348.332 363.973 347.876 358.986 346.792L357.635 346.569L349.715 362.59L351.083 362.885C375.086 370.518 389.007 363.396 392.529 346.427L392.636 345.893C397.661 320.032 386.875 304.026 351.945 305.734L351.9 307.253C351.868 308.315 350.981 309.149 349.919 309.117C348.857 309.085 348.023 308.198 348.055 307.136L348.089 305.984C335.858 306.881 343.868 305.346 348.129 304.661L348.418 294.995C343.381 297.558 334.102 298.514 321.764 298.325L320.753 298.307C308.8 298.068 295.426 296.634 291.204 295.275C291.843 309.908 292.728 335.862 293.653 363.013L293.653 363.017ZM354.21 348.344L351.355 355.277C349.377 354.976 348.013 354.626 346.989 354.363C346.65 354.276 346.348 354.199 346.074 354.136C345.702 351.381 345.711 349.383 346.059 348.204C346.361 347.179 346.798 346.601 347.367 346.34C348.594 346.741 350.038 347.178 351.699 347.65L352.949 348L354.21 348.344ZM343.473 354.328C343.623 354.229 343.783 354.155 343.946 354.103C343.532 351.885 343.529 348.512 343.876 347.334C344.113 346.532 344.313 345.901 344.583 345.391C344.187 345.256 343.586 344.948 342.845 344.569C339.437 342.824 333.083 339.572 330.284 344.675C325.563 353.286 321.415 380.34 322.622 380.347C324.339 380.358 328.704 374.253 331.577 368.83L331.704 368.588L332.445 367.146C334.7 362.772 338.304 357.72 343.473 354.328ZM356.95 344.866C356.334 344.757 355.725 345.032 355.393 345.54C355.262 345.461 355.117 345.399 354.96 345.36L344.307 342.73L344.072 342.596C335.972 338.018 330.735 338.406 327.079 343.506C325.783 345.315 325.134 347.588 324.822 350.605L324.785 350.986L324.74 351.507C324.698 352.029 324.665 352.569 324.632 353.236L324.502 356.018L324.478 356.44C324.437 357.095 324.397 357.522 324.339 357.923L324.302 358.162L324.184 358.809L324.112 359.142C324.071 359.321 324.021 359.527 323.955 359.783L323.766 360.503L322.611 364.673C322.404 365.625 322.21 366.522 322.027 367.362L323.266 332.629C327.157 337.46 335.426 340.004 347.241 339.27L348.214 339.215C348.672 339.192 349.133 339.167 349.599 339.142L349.613 339.141L349.698 339.136L349.716 339.135C354.861 338.859 360.444 338.559 365.503 339.682C378.117 342.484 372.958 345.059 371.847 345.614L371.78 345.647L371.747 345.664L371.602 345.733C369.825 346.523 365.656 346.363 357.778 345.01L356.95 344.866ZM274.355 487.329L274.775 487.206C274.572 487.268 289.787 485.113 297.93 476.642C299.467 475.044 308.794 476.217 308.794 476.217L308.803 476.241C312.314 482.055 312.82 488.099 308.416 489.881C306.861 490.511 304.234 491.137 301.584 490.919L301.198 490.885L300.655 490.83C300.281 490.791 299.88 490.743 299.409 490.684L296.788 490.346C295.409 490.177 294.8 490.135 293.967 490.135C292.512 490.135 285.517 491.163 285.517 491.163C283.382 491.49 282.295 491.602 281.172 491.604C276.675 491.61 273.843 490.505 272.451 489.938L272.318 489.881C272.193 489.825 272.092 489.77 272.012 489.718L271.927 489.657L271.92 489.683C272.081 489.033 272.626 487.856 274.355 487.329ZM342.418 134.077C342.858 130.517 343.003 127.188 342.886 124.094C337.556 126.211 332.22 125.822 327.684 123.152C323.958 120.958 320.603 117.471 317.603 112.71L317.493 112.533L317.394 112.725C314.971 117.325 311.845 120.999 308.018 123.728L307.633 123.997C302.829 127.303 297.195 128.779 290.783 128.428L290.809 128.542C294.465 144.635 307.171 169.428 316.984 170.023C320.737 170.25 326.184 164.188 331.233 157.616C336.686 150.52 341.417 142.186 342.418 134.077ZM333.532 100.317C338.334 104.811 341.724 111.677 342.662 120.856C342.606 120.874 342.549 120.895 342.494 120.92C337.781 123.033 333.161 123.575 329.246 121.269C325.368 118.986 321.844 114.228 318.698 108.504C318.082 107.382 316.444 107.46 315.937 108.636C315.836 108.87 315.726 109.133 315.606 109.422C314.215 112.746 311.421 119.43 305.358 122.958C300.944 125.527 294.431 126.177 291.215 126.498L291.212 126.499L291.207 126.499C290.92 126.528 290.659 126.554 290.429 126.578C290.309 125.83 290.219 125.085 290.157 124.347C293.831 123.681 301.553 121.138 304.658 119.188C308.596 116.714 309.802 114.19 311.807 109.993C312.174 109.224 312.568 108.398 313.011 107.506C313.394 106.737 314.3 101.607 312.151 105.508C312.02 105.745 311.882 106.004 311.733 106.281L311.732 106.283L311.732 106.284L311.731 106.285C309.495 110.465 304.952 118.957 290.067 122.831C289.778 114.212 293.262 106.49 298.356 101.495C303.113 96.8312 310.309 93.7472 315.776 93.2168C321.528 92.6589 328.481 95.5889 333.532 100.317Z" fill="#00160A"/>
<path fill-rule="evenodd" clip-rule="evenodd" d="M177.807 369.15C176.886 359.334 172.318 349.617 165.078 342.946C159.807 338.088 152.252 334.019 145.203 337.498C134.358 343.971 131.445 357.255 132.539 369.15C133.895 383.893 140.781 392.984 154.011 398.414C161.466 401.472 166.421 405.508 170.468 412.54C173.705 418.162 175.592 425.203 179.66 430.3C185.741 437.92 193.351 441.307 202.731 440.041C204.59 440.041 210.579 445.618 212.45 448.995C217.338 457.816 221.533 467.13 223.459 477.09C224.021 479.996 223.623 490.87 225.607 492.968C229.235 496.806 228.172 489.415 227.955 487.184C226.153 468.71 219.521 452.97 209.891 437.439C212.849 433.575 213.277 423.742 212.347 420.64C209.891 411.023 179.662 388.912 177.807 369.15Z" fill="white"/>
<path fill-rule="evenodd" clip-rule="evenodd" d="M144.096 335.269L144.042 335.299C133.967 341.312 130.283 349.715 131.006 369.221C131.766 389.716 139.2 393.349 152.546 398.957L152.952 399.126C160.444 402.199 165.169 406.207 169.034 412.923L169.344 413.471C170.02 414.688 170.623 415.931 171.473 417.829L172.997 421.286C175.054 425.925 176.364 428.365 178.291 430.78C184.617 438.705 192.528 442.091 202.067 440.804L202.157 440.786L202.245 440.757C203.723 440.176 208.749 445.287 211.011 449.368C216.503 459.281 220.051 467.927 221.816 476.628L221.936 477.235C222.05 477.825 222.125 478.731 222.213 480.453L222.333 483.002C222.362 483.597 222.389 484.114 222.417 484.603L222.434 484.893C222.721 489.637 223.192 492.345 224.281 493.496C225.735 495.035 227.078 495.325 227.814 493.989C228.232 493.228 228.33 492.001 228.24 490.274L228.204 489.698C228.183 489.403 228.157 489.096 228.126 488.768L227.877 486.345C226.113 469.546 220.374 454.303 210.242 437.785L210.045 437.465L210.17 437.265C212.595 433.262 213.48 424.298 212.317 420.419C210.33 413.791 206.4 408.427 199.25 401.354L198.004 400.128C185.913 388.168 181.857 381.999 178.534 368.836L177.39 364.282L177.362 364.17C174.632 353.648 171.768 347.385 166.351 342.393C159.851 336.403 150.715 332.003 144.096 335.269ZM165.308 343.525C170.277 348.104 173.79 353.89 176.37 363.528L176.925 365.66L177.697 368.755C178.534 377.052 181.121 386.826 196.923 401.223L197.763 402.05C205.003 409.156 208.912 414.419 210.843 420.86C211.941 424.524 210.936 433.807 208.513 436.971C208.319 437.225 208.302 437.573 208.47 437.844C218.775 454.464 224.579 469.696 226.345 486.494L226.562 488.587L226.622 489.221C226.649 489.524 226.671 489.808 226.688 490.083L226.703 490.354C226.778 491.791 226.695 492.829 226.466 493.247L226.454 493.274L226.482 493.282C226.278 493.238 225.901 492.97 225.399 492.439C224.702 491.703 224.252 489.199 223.991 485.133L223.936 484.219L223.735 480.111C223.654 478.554 223.58 477.68 223.465 477.038L223.447 476.943C221.69 467.855 218.049 458.896 212.356 448.622L212.231 448.4C209.57 443.723 204.399 438.488 201.804 439.283L201.788 439.288L201.861 439.279C192.872 440.492 185.489 437.333 179.494 429.82C177.619 427.47 176.334 425.043 174.224 420.255L173.137 417.781C171.989 415.196 171.28 413.74 170.367 412.156C166.401 405.264 161.517 401.057 153.959 397.878L153.536 397.702C140.453 392.332 133.856 383.41 132.538 369.08L132.5 368.652C131.389 355.417 135.362 344.004 144.532 338.339L144.803 338.174L144.776 338.188C150.719 335.255 159.226 337.92 165.308 343.525Z" fill="#00160A"/>
<path fill-rule="evenodd" clip-rule="evenodd" d="M220.422 440.276C224.872 440.96 228.75 438.354 230.243 434.011C231.533 430.257 231.659 425.891 233.124 422.342C234.133 419.898 235.738 417.822 237.702 416.067C242.88 411.438 248.286 410.28 249.83 402.597C251.04 396.574 249.537 384.297 241.131 385.521C235.283 386.377 230.557 394.191 227.833 399.119C224.463 405.218 221.318 411.753 219.547 418.452C216.629 429.486 216.235 441.734 216.199 453.036C216.194 454.398 215.91 471.033 217.855 470.76C219.782 470.49 218.562 453.222 218.726 449.647" fill="white"/>
<path fill-rule="evenodd" clip-rule="evenodd" d="M157.11 347.969C155.628 348.729 155.919 351.174 157.691 355.537C159.467 359.909 162.086 363.201 164.762 364.698C167.499 366.229 169.998 365.598 170.689 362.912C171.312 360.49 167.05 354.427 162.523 350.419C160.168 348.333 158.329 347.344 157.11 347.969ZM161.503 351.571C165.136 355.963 169.614 361.687 169.199 363.298C168.794 364.874 167.457 365.212 165.513 364.124C163.17 362.813 160.349 359.092 158.696 355.022L158.453 354.41C156.941 351.496 156.946 348.866 157.812 348.569C158.636 348.287 160.423 350.265 161.503 351.571ZM233.341 395.755C232.737 394.103 234.553 392.069 237.903 390.604C241.499 389.03 243.839 388.917 243.827 390.876C243.819 392.199 242.034 394.047 239.312 395.71C236.551 397.395 233.974 397.486 233.341 395.755ZM242.266 390.98C242.203 390.971 242.127 390.966 242.033 390.966L241.932 390.969C241.831 390.974 241.708 390.971 241.56 390.966C240.638 390.94 238.74 390.887 235.192 392.647C234.431 393.024 233.944 395.03 234.016 395.227C234.19 395.702 236.458 396.418 238.509 395.166C239.363 394.644 240.113 393.723 240.723 392.974C240.98 392.658 241.212 392.374 241.417 392.162C241.877 391.685 242.158 391.272 242.252 391.022L242.266 390.98ZM236.461 405.939L236.089 406.541C234.463 409.195 233.479 411.075 233.084 412.263C232.556 413.851 233.121 414.973 234.591 414.492C235.93 414.054 238.513 411.884 241.724 408.716C244.322 406.152 245.622 402.256 244.626 400.389C243.271 397.853 240.11 400.071 236.461 405.939ZM243.268 400.345C243.883 401.496 242.81 405.483 240.643 407.62L239.916 408.33C239.352 408.876 238.747 409.488 238.147 410.095L238.147 410.095L238.147 410.095L238.147 410.095L238.147 410.095L238.147 410.095L238.147 410.095L238.146 410.096C236.303 411.961 234.507 413.778 234.076 413.461C233.574 413.092 235.209 409.628 236.998 406.751C238.723 403.977 240.985 401.417 242.129 400.614C242.873 400.092 243.139 400.103 243.268 400.345ZM221.882 429.67C221.446 432.572 221.836 434.738 223.301 435.038C224.808 435.346 226.408 433.34 228.192 429.249C229.894 425.343 229.449 421.642 227.221 421.081C224.923 420.503 222.835 423.706 221.928 429.375L221.882 429.67ZM226.845 422.573C227.84 422.824 228.356 425.433 227.069 428.783C226.057 431.414 223.301 437.664 222.572 432.771C222.461 432.027 222.461 431.053 222.635 429.899L222.728 429.317C223.521 424.656 225.827 422.317 226.845 422.573ZM142.175 381.284C138.407 377.173 136.176 372.052 138.03 369.812C140.239 367.142 150.435 376.378 150.302 380.992C150.224 383.685 149.052 385.067 147.111 384.713C145.671 384.451 143.916 383.183 142.175 381.284ZM139.209 370.031L139.156 370.102C138.146 371.565 139.326 376.739 142.54 380.244C144.074 381.917 146.359 383.782 147.386 383.969C148.244 384.125 148.71 383.575 148.764 381.717C148.813 380.01 146.913 376.44 144.132 373.921C143.825 373.642 143.457 373.267 143.059 372.86L143.058 372.859L143.058 372.859C141.85 371.625 140.354 370.098 139.374 370.085C139.218 370.083 139.185 370.067 139.209 370.031ZM139.209 370.031L139.215 370.023C139.213 370.026 139.211 370.029 139.209 370.031ZM183.741 426.15C184.6 429.886 186.297 432.317 188.596 433.65C190.154 434.554 191.601 434.819 193.259 434.819C196.817 434.819 198.467 433.235 197.848 430.66C197.384 428.73 195.597 426.332 193.218 424.241C190.845 422.155 188.3 420.742 186.45 420.626C183.922 420.469 182.903 422.51 183.741 426.15ZM186.355 422.162C187.785 422.251 190.062 423.516 192.202 425.396C194.365 427.297 195.977 429.461 196.352 431.02C196.711 432.513 195.911 434.05 193.26 434.05C191.848 434.05 190.646 433.829 189.368 433.088C187.451 431.977 185.238 429.139 184.471 425.805C183.833 423.033 185.077 422.082 186.355 422.162ZM190.162 410.348C186.978 407.701 185.454 404.921 186.371 403.391C187.416 401.648 190.152 402.781 192.924 405.827C194.658 407.732 197.087 411.029 197.804 412.657C198.096 413.32 198.195 413.815 197.971 414.266C197.634 414.949 196.961 414.967 196.175 414.645C195.172 414.234 193.475 413.055 190.967 411.01L190.162 410.348ZM188.585 404.307C188.248 404.167 187.98 404.117 187.805 404.138C187.723 404.148 187.703 404.16 187.69 404.182C187.67 404.214 187.636 404.257 187.593 404.309C187.377 404.573 186.963 405.082 187.322 405.738C187.888 406.771 189.692 408.727 191.145 409.934C193.084 411.545 195.116 412.676 196.326 413.349L196.326 413.349C196.553 413.475 196.75 413.585 196.913 413.679L197.015 413.737L196.902 413.523C196.065 411.996 193.395 408.669 191.957 407.053L191.785 406.863C190.577 405.535 189.463 404.67 188.585 404.307ZM156.367 389.542C155.45 391.073 156.974 393.853 160.158 396.5L160.963 397.162C163.471 399.207 165.168 400.386 166.171 400.797C166.958 401.119 167.63 401.101 167.968 400.418C168.191 399.967 168.092 399.472 167.8 398.809C167.083 397.18 164.654 393.884 162.921 391.979C160.149 388.933 157.412 387.799 156.367 389.542ZM157.801 390.29C157.976 390.269 158.244 390.319 158.582 390.459C159.459 390.822 160.573 391.687 161.782 393.015L161.953 393.205C163.391 394.82 165.292 398.148 166.129 399.674L166.242 399.889L166.14 399.831C165.107 399.234 163.443 397.999 161.141 396.086C159.689 394.879 157.884 392.923 157.319 391.89C156.959 391.234 157.374 390.725 157.589 390.461C157.632 390.409 157.667 390.366 157.686 390.334C157.699 390.312 157.719 390.3 157.801 390.29ZM175.545 391.884C172.361 389.237 170.837 386.457 171.754 384.926C172.799 383.184 175.535 384.317 178.307 387.363C180.041 389.268 182.47 392.564 183.187 394.193C183.479 394.856 183.578 395.351 183.354 395.802C183.017 396.485 182.344 396.503 181.558 396.181C180.555 395.77 178.858 394.591 176.35 392.546L175.545 391.884ZM173.969 385.843C173.632 385.703 173.364 385.653 173.188 385.674C173.107 385.684 173.087 385.696 173.074 385.718C173.07 385.724 173.066 385.73 173.062 385.737C172.93 385.955 172.54 386.601 172.958 387.363C173.523 388.395 175.177 391.009 175.759 391.47C177.486 392.837 179.652 393.897 181.088 394.6C181.603 394.852 182.024 395.057 182.297 395.215L182.399 395.273L182.285 395.059C181.449 393.532 178.779 390.204 177.34 388.589L177.169 388.399C175.961 387.071 174.846 386.206 173.969 385.843Z" fill="#FFB61D"/>
<path fill-rule="evenodd" clip-rule="evenodd" d="M241.021 384.76C245.268 384.142 249.023 386.598 250.583 391.089C251.81 394.617 251.281 399.284 250.585 402.748C249.692 407.192 247.832 409.567 243.735 412.508L241.273 414.237C240.423 414.842 239.725 415.369 239.058 415.918C238.768 416.157 238.488 416.397 238.215 416.641C236.233 418.412 234.755 420.409 233.836 422.636L233.71 422.949C233.223 424.197 232.915 425.435 232.47 427.744L232.088 429.764C231.701 431.774 231.41 432.985 230.971 434.261C229.288 439.158 225.732 441.752 221.075 441.037C220.655 440.972 219.275 441.076 222.367 440.45C225.459 439.824 228.058 438.001 229.516 433.761C229.926 432.567 230.205 431.409 230.58 429.461L230.963 427.43C231.463 424.84 231.802 423.53 232.414 422.049C233.426 419.596 235.043 417.413 237.19 415.493C237.478 415.236 237.774 414.982 238.08 414.73C238.691 414.227 239.322 413.746 240.058 413.214L240.807 412.682C241.427 412.247 242.373 411.589 242.564 411.453L243.096 411.072C246.719 408.429 249.061 406.351 249.846 402.445C250.489 399.242 249.494 394.854 248.361 391.594C247.018 387.732 244.653 385.017 241.243 385.513C236.222 386.248 223.756 404.495 220.309 415.667C217.473 424.859 216.753 438.971 216.941 451.641L216.972 453.446L216.967 455.935C216.969 457.952 216.989 459.637 217.042 461.39L217.056 461.83C217.141 464.365 217.287 466.448 217.506 467.947C217.578 468.441 217.658 468.863 217.743 469.207L217.786 469.376L217.809 469.271C217.905 468.81 217.983 468.206 218.042 467.471L218.061 467.221L218.096 466.692C218.19 465.053 218.209 462.957 218.169 460.338L218.134 458.508C218.118 457.836 218.1 457.114 218.076 456.273L217.947 451.439C217.933 450.688 217.934 450.294 217.946 449.927L218.003 448.527C218.045 447.389 218.071 446.208 218.1 444.329L218.143 441.608C218.26 435.387 218.487 432.29 219.228 428.48C219.34 427.906 219.462 427.339 219.595 426.779C221.537 418.604 225.715 412.72 229.757 405.51C230.971 403.345 237.343 400.029 237.402 400.45C237.46 400.871 231.946 403.359 230.272 406.143C226.711 412.066 222.99 419.143 221.092 427.134C220.964 427.674 220.846 428.22 220.738 428.774L220.598 429.523C219.989 432.903 219.788 435.93 219.681 441.653L219.601 446.42C219.581 447.389 219.558 448.162 219.527 448.947L219.481 450.09C219.47 450.511 219.475 451.031 219.502 452.144L219.665 458.182C219.679 458.774 219.691 459.322 219.7 459.87L219.726 461.635C219.798 468.479 219.479 471.309 217.963 471.522C216.775 471.689 216.329 470.533 215.984 468.17C215.768 466.694 215.622 464.718 215.534 462.333L215.518 461.881C215.454 459.948 215.43 458.139 215.429 455.94L215.43 453.055C215.105 439.889 216.613 424.921 219.608 415.213C223.219 403.509 235.196 385.612 241.021 384.76Z" fill="#00160A"/>
<ellipse cx="217.721" cy="478.525" rx="30.004" ry="22.3107" fill="white"/>
<ellipse cx="205.8" cy="478.525" rx="18.0831" ry="22.3107" fill="#E7EAEE"/>
<path fill-rule="evenodd" clip-rule="evenodd" d="M247.726 455.253H187.718C187.186 455.253 186.756 455.684 186.756 456.215C186.756 472.651 188.307 482.883 192.428 489.988C197.075 497.999 205.081 501.798 217.722 501.798C230.362 501.798 238.368 497.999 243.015 489.988C247.136 482.883 248.687 472.651 248.687 456.215C248.687 455.684 248.257 455.253 247.726 455.253ZM190.219 457.176H245.992L245.991 457.397C245.918 472.823 245.926 482.461 242.12 489.023C237.85 496.384 229.724 500.644 217.721 500.644C205.718 500.644 198.361 495.614 194.091 488.253L193.948 488.003C190.296 481.534 190.333 472.883 190.224 458.004L190.219 457.176Z" fill="#00160A"/>
</svg>
